<svg xmlns="http://www.w3.org/2000/svg" width="1231" height="391" viewBox="0 0 1231 391" version="1.1"><path d="M 397.500 43.126 C 392.550 43.597, 384.050 44.886, 378.611 45.991 C 373.172 47.096, 368.559 48, 368.361 48 C 367.473 48, 368.235 51.494, 371.439 62.107 C 373.331 68.373, 375.386 75.459, 376.006 77.854 C 377.048 81.878, 377.336 82.163, 379.817 81.618 C 388.793 79.646, 412.483 76.801, 424.097 76.301 L 437.695 75.715 439.455 62.108 C 440.424 54.623, 441.451 47.038, 441.739 45.250 L 442.262 42 424.381 42.135 C 414.546 42.209, 402.450 42.656, 397.500 43.126 M 447 43.381 C 447 44.279, 442.954 70.738, 442.455 73.102 L 441.906 75.704 455.507 76.410 C 462.988 76.798, 473.471 77.779, 478.804 78.591 C 484.137 79.402, 490.300 80.307, 492.500 80.601 L 496.500 81.135 501.787 68.318 C 504.694 61.268, 507.169 55.064, 507.287 54.531 C 507.597 53.122, 484.644 47.372, 469.327 45.021 C 457.318 43.179, 447 42.420, 447 43.381 M 354.500 50.668 C 341.389 54.497, 326.827 59.556, 318.987 63.006 C 307.799 67.929, 290.292 76.718, 289.671 77.723 C 289.405 78.154, 292.503 83.905, 296.556 90.503 C 300.609 97.101, 304.309 103.143, 304.777 103.929 C 305.479 105.107, 307.555 104.558, 316.565 100.809 C 330.159 95.153, 340.667 91.662, 358 87.045 C 370.991 83.585, 371.488 83.356, 371.175 80.975 C 370.903 78.907, 367.820 68.267, 362.853 52.250 C 361.732 48.637, 361.564 48.605, 354.500 50.668 M 510.463 55.941 C 510.783 56.458, 508.826 62.563, 506.113 69.507 C 502.840 77.885, 501.571 82.276, 502.341 82.560 C 502.978 82.796, 509.162 84.533, 516.083 86.421 C 523.004 88.309, 532.671 91.469, 537.567 93.443 C 546.248 96.943, 546.505 96.985, 547.984 95.114 C 561.123 78.492, 561.518 77.852, 559.531 76.399 C 555.469 73.429, 529.058 60.964, 520.670 58.059 C 511.269 54.802, 509.538 54.443, 510.463 55.941 M 563.274 81.017 C 563.190 82.126, 560.349 86.153, 556.961 89.966 C 553.572 93.778, 550.957 97.371, 551.150 97.949 C 551.342 98.526, 556.764 101.421, 563.198 104.382 C 587.588 115.605, 612.702 131.950, 627.750 146.393 C 630.638 149.164, 633 151.126, 633 150.752 C 633 149.438, 620.897 132.402, 613.739 123.640 C 603.903 111.602, 587.984 96.453, 575.143 86.913 C 569.289 82.564, 564.258 79.005, 563.963 79.003 C 563.667 79.001, 563.357 79.907, 563.274 81.017 M 273.779 87.298 C 242.861 107.025, 212.291 138.305, 192.177 170.796 C 186.478 180.002, 186.469 180, 196.939 171.700 C 225.373 149.161, 272.476 119.439, 294.750 109.983 C 297.637 108.757, 300 107.360, 300 106.879 C 300 106.398, 297.162 101.390, 293.694 95.752 C 285.021 81.651, 284.588 80.994, 284.009 81.048 C 283.729 81.075, 279.126 83.887, 273.779 87.298 M 521.500 108.706 C 489.782 120.132, 467.771 127.609, 457.244 130.536 C 451.603 132.105, 447.328 133.689, 447.744 134.058 C 448.988 135.161, 472.796 141, 476.047 141 C 481.070 141, 501.444 129.865, 523 115.340 C 536.240 106.417, 540.530 103.179, 539.892 102.586 C 539.676 102.386, 531.400 105.140, 521.500 108.706 M 904.933 233.500 C 904.696 233.500, 895.377 281.044, 895.575 281.246 C 895.712 281.386, 898.939 281.354, 902.745 281.175 L 909.664 280.849 910.960 272.872 L 912.255 264.894 915.878 265.197 C 919.245 265.479, 919.799 266.028, 923.749 273 L 927.999 280.500 936.001 281 C 940.403 281.275, 944.003 281.131, 944.002 280.680 C 944.001 280.229, 941.975 276.524, 939.500 272.447 C 937.025 268.370, 935 264.801, 935 264.517 C 935 264.233, 935.922 264, 937.050 264 C 943.725 264, 949.939 256.761, 950.728 248.068 C 951.322 241.510, 949.982 238.202, 945.750 235.785 C 943.983 234.776, 921.195 233.500, 904.933 233.500 M 958.476 234.038 C 958.294 234.334, 957.409 238.609, 956.510 243.538 C 954.968 251.996, 950.606 273.842, 949.479 278.750 L 948.962 281 968.848 281 L 988.735 281 989.720 276.019 C 990.262 273.279, 990.471 270.804, 990.186 270.519 C 989.900 270.234, 984.131 270, 977.365 270 C 967.984 270, 965.154 269.703, 965.448 268.750 C 965.660 268.063, 966.104 266.262, 966.436 264.750 L 967.038 262 977.460 262 C 983.192 262, 988.082 261.663, 988.326 261.250 C 988.570 260.837, 989.086 258.587, 989.473 256.250 L 990.176 252 979.463 252 L 968.750 252 969.375 248.875 C 969.719 247.156, 970 245.356, 970 244.875 C 970 244.394, 975.761 244, 982.803 244 L 995.605 244 996.629 239 C 997.193 236.250, 997.394 233.990, 997.077 233.977 C 987.685 233.605, 958.716 233.650, 958.476 234.038 M 1002.882 235.815 C 1002.397 237.088, 1002 238.664, 1002 239.316 C 1002 239.968, 1000.472 247.701, 998.604 256.501 C 996.735 265.300, 994.896 274.413, 994.516 276.750 L 993.824 281 1000.329 281 L 1006.834 281 1007.845 276.250 C 1008.402 273.637, 1009.641 267.090, 1010.600 261.700 L 1012.343 251.900 1019.498 266.200 L 1026.652 280.500 1033.576 280.500 L 1040.500 280.500 1044.671 259 C 1046.965 247.175, 1048.878 236.600, 1048.922 235.500 C 1048.994 233.691, 1048.405 233.513, 1042.751 233.640 L 1036.500 233.781 1035.221 240.640 C 1034.518 244.413, 1033.358 250.875, 1032.643 255 L 1031.343 262.500 1024.269 248.028 L 1017.195 233.557 1010.479 233.528 C 1004.366 233.503, 1003.684 233.708, 1002.882 235.815 M 1106.428 233.786 C 1105.437 234.446, 1078 279.596, 1078 280.566 C 1078 280.805, 1081.320 281, 1085.379 281 C 1092.656 281, 1092.775 280.958, 1094.017 277.959 C 1097.014 270.724, 1098.286 270, 1108.005 270 C 1117.735 270, 1117.169 269.607, 1118.458 277.250 L 1119.091 281 1126.064 281 C 1132.776 281, 1133.020 280.915, 1132.545 278.750 C 1130.588 269.810, 1123.636 240.749, 1122.679 237.501 L 1121.500 233.503 1114.500 233.287 C 1110.650 233.168, 1107.018 233.393, 1106.428 233.786 M 1144.367 234.218 C 1143.743 235.224, 1134.938 280.271, 1135.295 280.629 C 1135.456 280.789, 1144.339 280.976, 1155.036 281.043 L 1174.485 281.166 1175.603 275.583 L 1176.722 270 1163.752 270 C 1150.807 270, 1150.784 269.996, 1151.331 267.750 C 1152.197 264.194, 1156.939 238.759, 1157.234 236.089 C 1157.489 233.774, 1157.247 233.674, 1151.156 233.589 C 1147.667 233.540, 1144.612 233.823, 1144.367 234.218 M 1051.625 237.125 C 1050.137 244.563, 1050.259 244.705, 1058 244.551 C 1061.850 244.475, 1065 244.468, 1065 244.537 C 1065 244.605, 1063.425 252.464, 1061.500 262 C 1059.575 271.536, 1058 279.712, 1058 280.169 C 1058 280.626, 1061.097 281, 1064.882 281 L 1071.764 281 1074.927 264.250 C 1076.667 255.037, 1078.335 246.680, 1078.635 245.678 C 1079.109 244.095, 1080.116 243.898, 1086.299 244.178 L 1093.418 244.500 1094.602 239.250 L 1095.785 234 1074.017 234 L 1052.250 234 1051.625 237.125 M 916.587 245.110 C 916.336 245.875, 915.705 248.637, 915.186 251.250 L 914.242 256 921.871 255.985 C 926.067 255.977, 930.610 255.409, 931.966 254.723 C 934.804 253.287, 936.935 247.535, 935.252 245.852 C 934.668 245.268, 930.333 244.550, 925.617 244.256 C 918.834 243.832, 916.949 244.011, 916.587 245.110 M 1107.710 252.870 C 1105.670 256.648, 1104 260.023, 1104 260.370 C 1104 260.716, 1106.475 261, 1109.500 261 C 1112.935 261, 1115 260.574, 1115 259.865 C 1115 257.222, 1112.602 246, 1112.038 246 C 1111.698 246, 1109.751 249.091, 1107.710 252.870" stroke="none" fill="#ed040b" fill-rule="evenodd"/><path d="M 365.500 13.056 C 309.764 17.761, 254.214 38.774, 211.007 71.494 C 172.596 100.583, 142.256 140.052, 124.988 183.393 C 120.605 194.394, 111 225.091, 111 228.098 C 111 229.178, 128.981 228.218, 130.255 227.070 C 130.671 226.696, 132.492 221.187, 134.303 214.828 C 136.114 208.469, 138.299 202.194, 139.159 200.883 C 140.344 199.077, 144.031 197.418, 154.400 194.029 L 168.078 189.558 173.694 178.529 C 195.899 134.929, 224.054 103.109, 265.500 74.773 C 293.788 55.432, 318.569 44.096, 351.017 35.651 C 391.346 25.156, 440.591 24.898, 482.500 34.963 C 502.034 39.655, 530.573 49.935, 543.928 57.092 C 552.307 61.582, 552.125 60.564, 543.405 54.177 C 532.307 46.048, 522.969 40.767, 509.474 34.989 C 473.482 19.578, 442.835 13.294, 400 12.541 C 387.075 12.313, 371.550 12.545, 365.500 13.056 M 348.500 126.669 C 307.643 129.190, 276.500 137.093, 242.500 153.570 C 230.934 159.175, 217.426 167.035, 195 181.210 C 177.632 192.188, 171.172 195.389, 157.046 200.019 L 145.500 203.802 142.933 213.151 C 141.522 218.293, 140.029 223.512, 139.616 224.750 C 138.321 228.631, 141.404 227.400, 147.395 221.643 L 152.971 216.286 183.735 215.603 C 200.656 215.228, 217.200 214.733, 220.500 214.503 C 223.800 214.273, 231.225 213.835, 237 213.529 C 256.017 212.521, 276.486 210.738, 277.294 210.019 C 278.598 208.859, 217.067 206.158, 186 206.013 L 167.500 205.926 176.304 202.480 C 182.335 200.119, 189.896 195.768, 200.304 188.669 C 232.838 166.481, 250.484 157.356, 280.500 147.198 C 305.290 138.809, 328.786 135.564, 365 135.527 C 392.951 135.499, 403.275 136.035, 422 138.487 C 461.800 143.701, 496.360 154.430, 532.366 172.750 L 549.232 181.331 563.366 182.605 C 571.140 183.306, 580.425 184.332, 584 184.886 C 587.575 185.440, 592.525 186.174, 595 186.518 C 632.821 191.762, 664.216 200.201, 683.094 210.198 C 694.164 216.060, 701.421 222.281, 700.647 225.243 C 700.365 226.319, 700.763 227.356, 701.578 227.668 C 704.052 228.618, 703.117 230, 700 230 C 698.350 230, 697 230.428, 697 230.951 C 697 231.474, 699.959 235.412, 703.575 239.701 C 711.460 249.052, 712 250.269, 712 258.664 C 712 264.684, 711.756 265.426, 708.894 268.099 C 707.186 269.694, 705.398 271, 704.920 271 C 703.755 271, 700.995 276.446, 701.018 278.700 C 701.028 279.690, 702.127 281.850, 703.460 283.500 C 704.794 285.150, 706.781 287.625, 707.877 289 C 709.850 291.474, 709.886 291.480, 711.393 289.500 C 712.231 288.400, 712.873 285.925, 712.820 284 C 712.768 282.075, 713.421 278.855, 714.272 276.845 C 718.866 265.988, 719.346 251.663, 715.460 241.368 C 714.034 237.591, 712.066 231.442, 711.086 227.704 C 709.015 219.807, 706.003 216.185, 695.912 209.455 C 684.627 201.929, 664.748 193.705, 646.415 188.978 C 624.444 183.313, 587.345 177.355, 562.850 175.557 C 555.686 175.031, 553.931 174.372, 535.273 165.208 C 509.369 152.483, 480.952 141.058, 475 140.975 C 473.625 140.955, 466.650 139.356, 459.500 137.420 C 427.384 128.726, 383.718 124.496, 348.500 126.669 M 321.500 141.939 C 280.787 148.854, 252.598 161.007, 212.718 188.837 C 207.339 192.591, 202.462 196.138, 201.883 196.717 C 200.158 198.442, 240.460 199.500, 307.704 199.496 C 351.495 199.492, 369.227 199.173, 370.027 198.373 C 371.519 196.881, 362.071 195.254, 347.500 194.492 C 341.450 194.175, 334.700 193.708, 332.500 193.452 C 330.300 193.197, 317.475 192.534, 304 191.979 C 290.525 191.423, 275.225 190.700, 270 190.371 C 264.775 190.042, 254.091 189.486, 246.257 189.136 L 232.014 188.500 241.700 182 C 261.602 168.644, 289.339 156.866, 311.500 152.361 C 323.659 149.890, 349.802 149.909, 356.943 152.394 C 367.801 156.174, 374.667 161.124, 394.352 179.369 C 399.771 184.391, 404.780 188.830, 405.482 189.232 C 407.002 190.104, 421 189.794, 421 188.889 C 421 188.038, 401.441 169.226, 391.122 160.153 C 380.639 150.934, 372.694 145.773, 364.723 143.002 C 355.761 139.887, 336.387 139.410, 321.500 141.939 M 385.179 140.805 L 379.857 141.109 388.089 146.619 C 398.242 153.415, 401.796 156.281, 419.392 171.860 L 433.352 184.220 437.926 183.556 C 441.389 183.052, 505.039 181.912, 525.372 181.989 C 530.606 182.009, 526.599 179.448, 503.650 168.107 C 480.126 156.483, 464.730 150.716, 446 146.514 C 427.892 142.451, 400.814 139.909, 385.179 140.805 M 359.043 177.559 C 351.307 179.236, 347.162 182.565, 348.860 185.738 C 350.146 188.142, 353.145 189.363, 363 191.495 C 367.125 192.387, 372.936 194.486, 375.914 196.160 C 380.833 198.924, 381.993 199.168, 388.597 198.835 C 392.594 198.633, 396.191 198.143, 396.588 197.745 C 396.986 197.347, 395.104 194.622, 392.406 191.689 C 389.708 188.755, 386.206 184.654, 384.625 182.574 C 379.632 176.008, 372.577 174.625, 359.043 177.559 M 443 190 C 443 190.550, 443.164 191, 443.364 191 C 443.563 191, 446.151 191.466, 449.114 192.035 C 452.076 192.604, 474.525 196.636, 499 200.996 C 523.475 205.355, 552.050 210.686, 562.500 212.842 C 585.077 217.499, 587 217.850, 587 217.304 C 587 216.331, 571.483 209.928, 562.370 207.142 C 545.615 202.017, 527.911 198.219, 501.500 194.081 C 475.145 189.953, 443 187.710, 443 190 M 476 208.531 C 476 208.822, 477.653 210.510, 479.672 212.281 C 481.692 214.051, 485.892 218.728, 489.006 222.674 C 496.133 231.707, 499.280 234.346, 507.222 237.947 C 516.443 242.128, 527.199 243.401, 547.460 242.711 C 569.362 241.965, 572.776 241.054, 579.379 234.199 C 582.196 231.275, 584.500 228.346, 584.500 227.691 C 584.500 226.691, 554.171 219.894, 539 217.494 C 537.075 217.189, 529.425 215.832, 522 214.478 C 511.083 212.487, 479.856 208.019, 476.750 208.004 C 476.337 208.002, 476 208.239, 476 208.531 M 294.209 213.074 C 288.251 213.882, 283 215.790, 283 217.146 C 283 220.218, 297.655 222.098, 308.304 220.393 C 322.966 218.046, 320.693 214.773, 303 212.755 C 301.075 212.535, 297.119 212.679, 294.209 213.074 M 501.519 222.920 C 509.051 232.824, 512.344 234.851, 523.500 236.452 L 527.500 237.026 523.079 235.568 C 520.059 234.572, 516.414 231.907, 511.579 227.159 C 505.579 221.267, 499.690 217, 497.558 217 C 497.261 217, 499.043 219.664, 501.519 222.920 M 425.005 221.610 C 415.220 225.160, 407.648 232.380, 401.691 243.841 C 396.803 253.245, 394.745 262.471, 394.821 274.650 L 394.884 284.799 366.692 284.385 C 236.318 282.466, 201.861 281.898, 191 281.488 C 184.125 281.228, 171.329 280.778, 162.564 280.488 C 153.799 280.199, 146.482 279.815, 146.303 279.636 C 146.124 279.457, 175.120 279.051, 210.739 278.732 C 250.770 278.375, 276.455 277.767, 278 277.140 C 280.318 276.201, 280.343 276.122, 278.348 276.063 C 277.165 276.029, 262.090 275.276, 244.848 274.391 C 205.309 272.361, 136.947 272.041, 116.500 273.790 C 108.250 274.496, 90.250 276.211, 76.500 277.602 C 62.750 278.993, 43.175 280.904, 33 281.850 C 22.825 282.796, 14.950 283.837, 15.500 284.163 C 16.050 284.488, 25.500 285.047, 36.500 285.403 C 47.500 285.760, 61.675 286.255, 68 286.503 C 83.998 287.131, 105.805 287.863, 130.500 288.601 C 142.050 288.947, 159.150 289.557, 168.500 289.957 L 185.500 290.685 160.500 291.027 C 146.750 291.215, 134.600 291.438, 133.500 291.521 C 132.400 291.605, 108.882 292.024, 81.237 292.453 C 53.592 292.882, 30.772 293.560, 30.525 293.959 C 30.047 294.733, 49.269 295.480, 108 296.969 C 174.175 298.647, 203.139 298.966, 337 299.488 C 489.128 300.082, 639.421 301.059, 646 301.497 C 652.846 301.953, 705.061 302.272, 705.472 301.861 C 705.670 301.662, 702.822 297.030, 699.143 291.566 C 694.167 284.176, 691.736 281.440, 689.652 280.882 C 686.677 280.087, 654.066 279.437, 625 279.595 C 605.185 279.702, 599.854 280.717, 587.239 286.780 L 579.500 290.500 544.500 290.241 C 525.250 290.098, 503.425 289.648, 496 289.241 L 482.500 288.500 481.371 280 C 479.615 266.780, 477.205 258.350, 472.082 247.500 C 466.596 235.882, 458.914 226.813, 451.355 223.030 C 445.028 219.863, 431.786 219.150, 425.005 221.610 M 601.227 226.053 C 591.439 231.044, 586.141 243.668, 590.422 251.800 C 592.025 254.846, 599.865 262.575, 604.711 265.886 C 609.959 269.473, 618.607 271.922, 629.745 272.978 C 643.314 274.263, 681.850 274.392, 685.037 273.162 C 691.462 270.684, 694.580 263.451, 695.613 248.630 C 696.679 233.330, 694.564 230.686, 678.190 226.851 C 670.703 225.097, 665.071 224.750, 637.500 224.345 C 606.129 223.883, 605.416 223.917, 601.227 226.053 M 563 227.993 C 566.575 229.093, 570.175 229.949, 571 229.897 C 573.004 229.770, 564.582 227.159, 560.072 226.509 C 558.079 226.222, 559.373 226.878, 563 227.993 M 114 233.626 C 92.962 235.578, 65.357 238, 64.151 238 C 61.203 238, 64.250 239.502, 67.336 239.570 C 69.076 239.608, 86.475 240.234, 106 240.960 C 146.142 242.454, 182.543 241.764, 234.500 238.526 C 238.900 238.252, 243.512 238.021, 244.750 238.014 C 245.988 238.006, 247 237.590, 247 237.090 C 247 236.278, 242.980 235.789, 225.500 234.475 C 217.878 233.902, 119.129 233.150, 114 233.626 M 742.720 234.468 C 733.436 237.071, 728.606 242.738, 725.495 254.680 C 723.475 262.437, 723.572 270.467, 725.731 274.121 C 726.683 275.733, 729.696 278.165, 732.427 279.526 C 736.783 281.696, 738.711 282, 748.131 282 C 761.576 282, 763.266 281.394, 764.884 275.992 C 765.576 273.682, 766.363 271.216, 766.633 270.513 C 767.021 269.504, 764.803 269.345, 756.100 269.757 C 742.993 270.378, 740 269.245, 740 263.658 C 740 258.364, 742.753 250.581, 745.559 247.941 C 747.975 245.669, 749.015 245.477, 760.561 245.169 L 772.967 244.838 774.033 240.669 C 774.619 238.376, 775.273 235.975, 775.486 235.333 C 775.699 234.691, 775.340 233.966, 774.687 233.722 C 771.790 232.640, 747.194 233.214, 742.720 234.468 M 790.292 242.529 C 787.106 247.770, 780.337 258.621, 775.250 266.642 C 770.163 274.662, 766 281.419, 766 281.656 C 766 281.893, 769.247 281.955, 773.215 281.794 C 780.225 281.508, 780.495 281.401, 782.748 278 C 787.300 271.131, 787.517 271, 794.365 271 C 804.619 271, 806.789 271.720, 807.520 275.364 C 808.898 282.233, 808.604 282, 815.901 282 C 819.622 282, 822.898 281.769, 823.180 281.486 C 823.463 281.204, 822.203 274.791, 820.381 267.236 C 818.558 259.681, 816.094 248.887, 814.903 243.250 L 812.739 233 804.411 233 L 796.083 233 790.292 242.529 M 831.723 256.136 C 829.113 268.986, 826.983 280.083, 826.989 280.796 C 826.997 281.757, 828.742 282.015, 833.750 281.796 L 840.500 281.500 842.457 273.250 C 844.412 265.008, 844.417 265, 847.667 265 C 850.676 265, 851.312 265.639, 856.115 273.500 L 861.309 282 869.155 282 C 873.470 282, 877 281.724, 877 281.386 C 877 281.048, 874.918 277.431, 872.372 273.347 C 869.827 269.263, 867.914 265.796, 868.122 265.641 C 868.330 265.487, 870.300 264.841, 872.500 264.206 C 877.306 262.818, 881.718 258.920, 883.611 254.389 C 885.508 249.848, 885.384 241.993, 883.369 239.117 C 880.199 234.591, 875.916 233.684, 855.484 233.212 L 836.468 232.773 831.723 256.136 M 536.500 237 L 529.500 237.647 536.500 237.808 C 540.350 237.897, 544.175 237.533, 545 237 C 546.333 236.138, 546.333 236.049, 545 236.192 C 544.175 236.281, 540.350 236.644, 536.500 237 M 428.500 241.207 C 421.046 243.812, 414.308 252.124, 410.979 262.819 C 408.932 269.396, 407.276 284.988, 408.621 285.022 C 409.104 285.034, 421.650 285.701, 436.500 286.505 C 471.413 288.394, 470 288.408, 470 286.160 C 470 285.148, 469.104 280.815, 468.008 276.532 C 463.794 260.053, 454.439 245.856, 445.167 241.865 C 440.451 239.835, 433.239 239.550, 428.500 241.207 M 848.581 245.125 C 848.333 245.881, 847.712 248.604, 847.202 251.175 L 846.274 255.850 850.887 256.463 C 855.763 257.111, 864.539 255.861, 866.105 254.295 C 866.616 253.784, 867.439 251.956, 867.933 250.235 C 869.215 245.764, 867.394 244.715, 857.443 244.192 C 850.899 243.849, 848.933 244.056, 848.581 245.125 M 121 245.690 C 96.711 246.092, 41.453 248.277, 40.500 248.874 C 36.768 251.210, 160.835 252.889, 201.347 251.050 C 227.182 249.878, 234.196 248.817, 223.825 247.650 C 215.954 246.764, 141.668 245.348, 121 245.690 M 797.306 253.533 L 793.146 261 799.073 261 C 802.333 261, 805 260.625, 805 260.167 C 805 258.195, 802.662 247.436, 802.092 246.783 C 801.748 246.389, 799.594 249.426, 797.306 253.533 M 36 256.886 C 17.272 257.738, 23.567 258.676, 70.315 262 C 78.117 262.554, 89.225 263.435, 95 263.957 C 107.620 265.098, 114.619 265.589, 139.500 267.078 C 155.423 268.032, 162.143 267.952, 181 266.588 C 193.375 265.693, 211.150 264.483, 220.500 263.899 C 229.850 263.315, 237.927 262.424, 238.450 261.919 C 239.033 261.355, 237.874 260.988, 235.450 260.969 C 230.887 260.934, 223.614 260.517, 190.500 258.392 C 165.034 256.759, 61.098 255.746, 36 256.886 M 533.723 262.039 C 531.095 262.481, 527.045 263.956, 524.723 265.317 C 520.533 267.772, 504.769 281.293, 504.207 282.912 C 504.046 283.376, 508.321 284.060, 513.707 284.432 C 519.093 284.804, 530.475 285.808, 539 286.664 C 565.710 289.343, 570.740 288.251, 583.625 276.976 C 586.753 274.239, 589.691 272, 590.156 272 C 590.620 272, 591 271.411, 591 270.691 C 591 268.658, 575.813 264.010, 564.053 262.444 C 552.611 260.921, 541.272 260.769, 533.723 262.039 M 773.750 308.708 C 771.559 318.460, 771.520 318, 774.525 318 C 776.534 318, 777.173 317.383, 777.654 314.979 C 778.406 311.221, 779.258 310.678, 783.084 311.518 C 785.845 312.125, 786.059 312.454, 785.463 315.168 C 784.847 317.975, 784.974 318.132, 787.623 317.826 C 790.245 317.522, 790.556 316.987, 792.178 310 C 794.385 300.488, 794.418 301, 791.598 301 C 789.828 301, 788.920 301.789, 788.150 304 C 787.214 306.685, 786.667 307, 782.945 307 C 779.391 307, 778.885 306.745, 779.467 305.250 C 780.715 302.044, 780.518 301.502, 778 301.208 C 775.646 300.933, 775.398 301.371, 773.750 308.708 M 802.566 309.080 C 799.505 313.524, 797 317.349, 797 317.580 C 797 318.787, 802.866 317.791, 803.362 316.500 C 803.738 315.519, 805.296 315, 807.862 315 C 810.427 315, 811.985 315.519, 812.362 316.500 C 812.936 317.997, 818.005 318.672, 817.994 317.250 C 817.991 316.837, 817.570 314.925, 817.058 313 C 816.547 311.075, 815.632 307.587, 815.025 305.250 C 814.048 301.482, 813.594 301, 811.027 301 C 808.531 301, 807.363 302.115, 802.566 309.080 M 829.629 301.791 C 829.075 302.688, 826 315.627, 826 317.062 C 826 317.578, 827.116 318, 828.481 318 C 830.293 318, 831.131 317.326, 831.589 315.500 C 832.074 313.571, 832.862 313, 835.043 313 C 838.486 313, 843.188 311.302, 844.214 309.687 C 844.630 309.034, 844.976 307.251, 844.985 305.725 C 844.996 303.659, 844.345 302.701, 842.435 301.975 C 839.359 300.806, 830.319 300.676, 829.629 301.791 M 853.629 301.791 C 852.997 302.813, 850 315.724, 850 317.423 C 850 319.788, 854.781 318.008, 855.436 315.399 C 855.930 313.431, 856.675 313, 859.585 313 C 863.230 313, 866.938 311.543, 868.235 309.600 C 868.639 308.995, 868.976 307.251, 868.985 305.725 C 868.996 303.659, 868.345 302.701, 866.435 301.975 C 863.359 300.806, 854.319 300.676, 853.629 301.791 M 875 301.662 C 875 302.026, 876.168 304.317, 877.595 306.752 C 879.604 310.180, 880.045 311.948, 879.549 314.589 C 878.939 317.841, 879.046 318, 881.843 318 C 884.371 318, 884.863 317.543, 885.396 314.701 C 885.784 312.633, 887.693 309.755, 890.508 306.992 C 892.978 304.568, 895 302.227, 895 301.792 C 895 299.840, 890.104 301.282, 887.500 304 C 885.919 305.650, 884.315 307, 883.934 307 C 883.554 307, 882.683 305.650, 882 304 C 881.026 301.649, 880.134 301, 877.879 301 C 876.295 301, 875 301.298, 875 301.662 M 920.372 302.474 C 920.061 303.284, 919.261 306.097, 918.594 308.724 C 917.470 313.150, 917.130 313.524, 913.949 313.831 C 910.800 314.135, 909.054 315.345, 909.015 317.250 C 909.007 317.663, 911.405 318, 914.345 318 C 920.989 318, 922.447 316.563, 923.912 308.566 C 924.511 305.303, 925 302.265, 925 301.816 C 925 300.373, 920.957 300.947, 920.372 302.474 M 936.314 302.950 C 932.537 305.253, 931 307.807, 931 311.779 C 931 316.213, 933.708 318, 940.428 318 C 945.593 318, 946.502 317.675, 949.099 314.894 C 953.243 310.458, 953.220 304.682, 949.050 302.526 C 945.038 300.451, 940.145 300.614, 936.314 302.950 M 960.015 304.944 C 959.431 307.113, 958.851 310.595, 958.727 312.681 C 958.509 316.326, 958.667 316.529, 962.734 317.828 C 966.520 319.037, 967.367 318.985, 970.734 317.340 C 974.978 315.267, 976.519 312.638, 977.530 305.750 C 978.203 301.163, 978.141 301, 975.725 301 C 973.616 301, 973.120 301.589, 972.571 304.750 C 971.178 312.763, 968.975 315.695, 965.385 314.317 C 963.770 313.698, 963.853 309.498, 965.603 303.250 C 966.139 301.336, 965.849 301, 963.655 301 C 961.500 301, 960.903 301.647, 960.015 304.944 M 986.735 301.644 C 986.453 302.115, 985.691 305.200, 985.042 308.500 C 984.393 311.800, 983.627 315.321, 983.340 316.325 C 982.910 317.829, 983.311 318.093, 985.619 317.825 C 987.626 317.592, 988.582 316.812, 988.988 315.074 C 989.821 311.509, 991.665 311.452, 993.467 314.936 C 994.716 317.352, 995.705 318, 998.141 318 C 1001.220 318, 1001.225 317.992, 999.563 315.456 C 997.962 313.013, 997.998 312.792, 1000.448 309.879 C 1003.192 306.619, 1003.493 305.328, 1002.043 303.036 C 1001.005 301.395, 987.615 300.177, 986.735 301.644 M 1011.629 301.791 C 1011.075 302.688, 1008 315.627, 1008 317.062 C 1008 317.578, 1009.125 318, 1010.500 318 C 1012.197 318, 1013.014 317.438, 1013.045 316.250 C 1013.070 315.288, 1013.647 313.196, 1014.328 311.602 L 1015.565 308.704 1018.031 313.352 C 1020.022 317.106, 1021.010 318, 1023.165 318 C 1025.981 318, 1026.192 317.476, 1028.549 304.664 C 1029.213 301.053, 1029.117 300.847, 1026.921 301.164 C 1025.079 301.429, 1024.358 302.445, 1023.501 305.981 L 1022.414 310.462 1019.159 305.731 C 1016.152 301.360, 1012.936 299.677, 1011.629 301.791 M 1037.511 302.250 C 1036.630 304.835, 1034 315.835, 1034 316.936 C 1034 318.590, 1049.198 317.928, 1049.753 316.250 C 1050.048 315.360, 1048.704 315, 1045.083 315 C 1041.317 315, 1040 314.626, 1040 313.555 C 1040 312.541, 1041.414 312.019, 1044.741 311.805 C 1048.313 311.575, 1049.564 311.069, 1049.814 309.750 C 1050.091 308.291, 1049.390 308, 1045.605 308 C 1041.978 308, 1041.179 307.698, 1041.638 306.500 C 1042.039 305.456, 1043.668 305, 1047 305 C 1050.183 305, 1051.966 304.530, 1052.324 303.598 C 1053.179 301.371, 1052.104 301, 1044.802 301 C 1040.204 301, 1037.796 301.413, 1037.511 302.250 M 1059 302.072 C 1059 302.661, 1060.127 305.068, 1061.506 307.419 C 1063.380 310.617, 1063.852 312.489, 1063.381 314.847 C 1062.781 317.846, 1062.902 318, 1065.875 318 C 1068.561 318, 1069 317.641, 1069 315.440 C 1069 313.740, 1070.679 311.105, 1074 307.594 C 1076.750 304.686, 1079 302.013, 1079 301.653 C 1079 299.760, 1073.684 301.349, 1071.150 304 C 1069.574 305.650, 1068.006 307, 1067.667 307 C 1067.329 307, 1066.353 305.650, 1065.500 304 C 1064.410 301.893, 1063.212 301, 1061.474 301 C 1060.113 301, 1059 301.482, 1059 302.072 M 175 303.265 C 174.725 303.527, 166.850 304.044, 157.500 304.413 C 142.064 305.021, 117.384 306.521, 82.652 308.960 C 75.586 309.456, 69.549 310.118, 69.236 310.431 C 68.923 310.744, 78.079 310.992, 89.583 310.983 C 127.539 310.952, 268.337 312.004, 268.655 312.321 C 268.826 312.492, 259.636 313.193, 248.233 313.878 C 236.830 314.562, 218.050 315.767, 206.500 316.554 C 194.950 317.341, 181.900 318.227, 177.500 318.523 C 156.773 319.918, 141.454 321.264, 141 321.732 C 140.009 322.751, 254.242 321.095, 286 319.630 C 320.789 318.025, 363.467 316.826, 361 317.523 C 360.175 317.756, 353.875 318.400, 347 318.955 C 325.634 320.679, 301.078 322.986, 287 324.593 C 279.575 325.440, 267.959 326.732, 261.186 327.464 C 254.413 328.196, 248.563 329.118, 248.186 329.513 C 247.198 330.548, 311.783 328.180, 344 326.001 C 359.020 324.985, 387.105 323.349, 404.500 322.477 C 428.318 321.283, 435.602 321.007, 454.500 320.579 C 470.262 320.223, 472.487 320.315, 465 321.010 C 459.775 321.496, 447.625 322.628, 438 323.527 C 423.084 324.919, 394.735 327.893, 346.750 333.100 C 334.357 334.445, 331.975 336.422, 343.750 335.589 C 348.012 335.288, 357.800 334.784, 365.500 334.469 C 373.200 334.154, 382.650 333.711, 386.500 333.484 C 390.350 333.257, 399.575 332.807, 407 332.483 C 423.162 331.779, 478.871 328.515, 509.500 326.477 C 521.600 325.672, 538.925 324.559, 548 324.003 C 557.075 323.446, 567.353 322.764, 570.841 322.487 C 582.801 321.536, 623.519 318.980, 658.500 316.984 C 677.750 315.886, 700.925 314.558, 710 314.032 C 719.075 313.506, 734.825 312.809, 745 312.484 C 755.175 312.158, 764.619 311.656, 765.986 311.368 C 781.107 308.179, 702.434 305.989, 519.500 304.507 C 409.763 303.617, 175.516 302.773, 175 303.265 M 833.667 305.667 C 832.187 307.146, 833.138 309, 835.378 309 C 837.860 309, 840.463 306.796, 839.325 305.658 C 838.468 304.802, 834.526 304.808, 833.667 305.667 M 857.667 305.667 C 856.220 307.114, 857.119 308.999, 859.250 308.985 C 862.225 308.964, 864.427 307.500, 863.569 306.112 C 862.821 304.901, 858.740 304.593, 857.667 305.667 M 938 307 C 935.264 309.736, 935.460 312.797, 938.459 314.163 C 942.930 316.200, 948.931 310.031, 945.960 306.452 C 944.246 304.387, 940.344 304.656, 938 307 M 990.671 306.414 C 990.350 307.251, 990.543 308.218, 991.101 308.562 C 992.685 309.541, 997.188 308.066, 996.744 306.713 C 996.136 304.862, 991.357 304.627, 990.671 306.414 M 1082.924 309.625 L 1080.500 312.249 1117.500 311.532 C 1137.850 311.137, 1154.687 310.631, 1154.917 310.407 C 1155.146 310.183, 1155.117 309.784, 1154.853 309.520 C 1153.909 308.576, 1122.159 307.007, 1103.924 307.004 L 1085.349 307 1082.924 309.625" stroke="none" fill="#040c19" fill-rule="evenodd"/></svg>