<svg xmlns="http://www.w3.org/2000/svg" width="1328" height="637" viewBox="0 0 1328 637" version="1.1"><path d="M 684 96.679 C 667.009 97.925, 644.946 100.623, 627.934 103.536 C 609.949 106.615, 593.475 110.191, 592.422 111.244 C 591.853 111.813, 608.617 173.950, 609.606 174.939 C 609.853 175.186, 618.705 173.724, 629.277 171.690 C 654.314 166.873, 674.490 164.406, 701.124 162.905 L 722.748 161.687 723.357 156.093 C 723.692 153.017, 725.318 139.475, 726.969 126 C 728.621 112.525, 729.978 100.263, 729.986 98.750 L 730 96 709.250 96.175 C 697.837 96.271, 686.475 96.498, 684 96.679 M 741 97.618 C 741 97.958, 739.437 110.896, 737.526 126.368 C 735.615 141.841, 733.870 156.096, 733.648 158.047 L 733.245 161.594 753.872 162.799 C 776.992 164.148, 797.468 166.611, 822.240 171.020 C 831.446 172.659, 839.548 174, 840.244 174 C 840.939 174, 844.080 168.037, 847.223 160.750 C 858.571 134.438, 865.093 118.760, 864.799 118.495 C 863.852 117.641, 840.113 111.533, 826 108.511 C 792.056 101.245, 741 94.701, 741 97.618 M 576 114.991 C 574.625 115.449, 567.650 117.719, 560.500 120.035 C 544.814 125.116, 523.242 133.612, 505.131 141.841 C 493.232 147.248, 462.140 163.388, 457.890 166.365 C 456.469 167.360, 458.123 170.603, 471.217 192.500 C 479.439 206.250, 486.496 217.844, 486.899 218.265 C 487.301 218.686, 491.217 217.278, 495.600 215.136 C 520.012 203.206, 566.782 186.169, 594.834 178.987 C 597.398 178.331, 599.002 177.393, 598.764 176.689 C 598.542 176.035, 594.567 161.669, 589.930 144.764 C 581.052 112.393, 581.422 113.184, 576 114.991 M 873.825 126.240 C 870 134.263, 854.101 171.750, 853.487 174.195 C 852.861 176.688, 853.115 176.951, 857.158 178.003 C 882.783 184.672, 904.902 192.171, 929.855 202.649 C 938.300 206.195, 945.566 208.963, 946.002 208.798 C 947.936 208.071, 979.086 174.757, 978.756 173.769 C 978.085 171.756, 945.780 153.013, 927.500 144.031 C 909.709 135.289, 884.238 124.598, 878.439 123.438 C 875.777 122.905, 875.268 123.214, 873.825 126.240 M 433.857 181.627 C 422.062 189.548, 409.807 198.749, 399.500 207.421 C 353.319 246.279, 319.487 285.392, 290.012 334 C 282.367 346.608, 265.405 379.738, 266.192 380.525 C 266.386 380.720, 273.960 374.090, 283.023 365.793 C 340.368 313.288, 390.804 274.010, 434.500 247.825 C 447.861 239.819, 474.874 225, 476.107 225 C 476.598 225, 477 224.520, 477 223.932 C 477 223.345, 471.084 213.108, 463.854 201.182 C 456.624 189.257, 449.987 178.265, 449.104 176.756 C 448.222 175.247, 446.986 174.010, 446.357 174.006 C 445.728 174.003, 440.103 177.432, 433.857 181.627 M 981.870 186.750 C 978.252 190.463, 971.149 198.176, 966.084 203.892 L 956.875 214.284 973.687 222.976 C 1019.945 246.893, 1061.594 276.530, 1097.254 310.907 L 1109.280 322.500 1106.086 316.171 C 1097.036 298.239, 1078.956 271.166, 1060.448 247.831 C 1048.815 233.166, 1020.498 204.609, 1006.531 193.458 C 996.660 185.578, 989.283 180, 988.732 180 C 988.575 180, 985.487 183.037, 981.870 186.750 M 941.544 227.493 C 937.102 230.221, 898.080 247.402, 867 260.313 C 855.725 264.997, 837.275 272.956, 826 277.999 C 814.725 283.042, 800.801 289.259, 795.057 291.813 C 785.412 296.103, 784.839 296.511, 787.557 297.148 C 789.176 297.528, 799.612 300.014, 810.750 302.674 C 821.888 305.333, 831 307.257, 831 306.950 C 831 305.519, 899.169 257.191, 934.416 233.633 C 941.520 228.885, 946.920 225.014, 946.416 225.031 C 945.912 225.048, 943.720 226.156, 941.544 227.493" stroke="none" fill="#da0411" fill-rule="evenodd"/><path d="M 634.500 32.069 C 606.198 33.626, 561.088 40.899, 532 48.595 C 464.829 66.368, 398.154 98.551, 343.464 139.598 C 314.172 161.582, 274.209 199.347, 250.975 227 C 194.072 294.725, 159.842 366.048, 142.077 453.898 C 140.364 462.367, 139.138 469.472, 139.353 469.686 C 139.828 470.162, 157.526 464.125, 164.645 461.059 C 169.537 458.953, 172.180 456.389, 177.897 448.206 C 179.221 446.312, 181.537 439.514, 183.349 432.206 L 186.500 419.500 203.217 412.106 L 219.935 404.712 221.603 399.606 C 230.739 371.639, 253.136 326.661, 273.451 295.484 C 327.545 212.468, 404.004 146.223, 492.500 105.697 C 579.521 65.847, 675.377 49.454, 762.500 59.524 C 818.917 66.045, 869.042 80.984, 920.106 106.497 C 929.240 111.060, 938.569 115.965, 940.837 117.397 C 946.870 121.206, 947.292 120.574, 941.497 116.408 C 923.658 103.586, 899.134 88.589, 881.779 79.889 C 810.593 44.205, 722.747 27.217, 634.500 32.069 M 574.500 283.134 C 519.810 286.422, 448.600 303.986, 394.133 327.621 C 368.478 338.753, 325.163 361.757, 294.165 380.712 C 252.570 406.148, 244.442 410.531, 217.500 422.057 L 199.500 429.757 196.920 438.670 C 193.507 450.457, 188.727 459.255, 182.003 466.118 C 176.584 471.650, 176.358 471.764, 167.250 473.492 C 162.162 474.458, 158 475.471, 158 475.742 C 158 476.345, 172.579 475.277, 183.500 473.874 C 192.248 472.751, 194.172 471.627, 207.940 459.600 C 211.572 456.427, 215.932 453.588, 217.940 453.087 C 219.898 452.599, 237.475 451.925, 257 451.590 C 276.525 451.255, 308.475 450.498, 328 449.908 C 347.525 449.318, 377 448.535, 393.500 448.168 L 423.500 447.500 388.500 444.741 C 369.250 443.224, 329.650 440.179, 300.500 437.975 C 271.350 435.770, 243.556 433.637, 238.735 433.233 L 229.969 432.500 247.735 425.253 C 257.506 421.267, 268.650 417.058, 272.500 415.899 C 277.483 414.399, 281.949 412.002, 288 407.583 C 334.825 373.383, 347.218 365.575, 380.018 349.610 C 434.373 323.152, 496.654 304.955, 559 297.316 C 576.932 295.119, 643.350 294.823, 674.500 296.802 C 783.127 303.702, 831.075 314.563, 907 349.463 C 920.707 355.763, 963.250 377.676, 973 383.458 L 977.500 386.126 970.735 385.765 C 961.198 385.255, 964.728 386.599, 975 387.389 C 986.883 388.303, 1033.772 393.583, 1056.500 396.566 C 1105.257 402.967, 1154.937 413.284, 1184.362 423.121 C 1218.790 434.630, 1254.538 452.553, 1268.847 465.480 C 1271.972 468.304, 1273.017 470.008, 1273.070 472.366 C 1273.130 475.023, 1273.271 475.196, 1274 473.500 C 1274.473 472.400, 1274.891 470.164, 1274.930 468.531 L 1275 465.563 1281.110 471.531 C 1284.470 474.814, 1287.899 479.075, 1288.729 481 C 1289.584 482.982, 1290.470 489.033, 1290.773 494.954 L 1291.308 505.407 1295.566 500.704 C 1300.522 495.230, 1301.562 491.097, 1300.020 483 C 1298.046 472.633, 1297.264 471.357, 1288.173 463.692 C 1264.184 443.464, 1234.437 427.503, 1195.678 414.062 C 1147.312 397.289, 1107.040 390.328, 999.315 380.120 L 989.131 379.155 965.815 366.694 C 864.334 312.460, 816.678 297.425, 716.500 288.042 C 662.097 282.946, 608.450 281.092, 574.500 283.134 M 548.500 309.069 C 527.741 311.846, 509.927 315.441, 487 321.480 C 433.638 335.535, 389.895 354.482, 348.554 381.446 C 337.411 388.714, 312.818 406.890, 305.604 413.190 L 301.708 416.592 306.104 416.825 C 308.522 416.954, 319.275 417.950, 330 419.039 C 400.961 426.244, 437.764 427.896, 488.295 426.143 C 526.632 424.813, 556.960 423.211, 598 420.349 C 629.674 418.139, 626.026 417.429, 581.500 417.138 C 552.916 416.950, 494.906 415.484, 476 414.471 C 443.130 412.709, 372.511 405.987, 359.794 403.409 C 357.152 402.873, 357.256 402.708, 364.294 396.301 C 394.641 368.674, 436.752 348.711, 495.556 334.075 C 539.773 323.070, 573.603 320.465, 594.500 326.456 C 622.295 334.424, 647.118 354.556, 686 400.666 L 689.500 404.817 701.276 403.159 L 713.053 401.500 709.816 397.500 C 686.647 368.861, 659.941 341.361, 645 330.758 C 614.875 309.378, 589.248 303.619, 548.500 309.069 M 652 312.274 C 652.275 312.558, 656.325 315.606, 661 319.047 C 678.166 331.681, 706.164 357.082, 726.963 378.891 L 741.640 394.281 759.570 392.638 C 811.448 387.882, 876.130 384.681, 910.771 385.155 C 932.168 385.447, 935.770 385.293, 934.271 384.147 C 931.155 381.767, 871.032 352.438, 856 345.965 C 838.754 338.539, 815.358 329.547, 801.500 325.019 C 796 323.222, 791.050 321.291, 790.500 320.729 C 789.833 320.047, 789.833 319.887, 790.500 320.247 C 791.815 320.957, 824.001 323.332, 824.572 322.761 C 824.993 322.341, 814.491 320.869, 787 317.494 C 759.923 314.170, 736.329 312.848, 694.500 312.310 C 670.850 312.006, 651.725 311.990, 652 312.274 M 616 377.497 C 606.024 379.374, 591.719 383.556, 585.336 386.461 C 579.196 389.255, 577.474 391.751, 579.149 395.428 C 581.624 400.860, 594.019 404.340, 617.963 406.325 L 632.466 407.527 636.983 413.327 L 641.500 419.127 656.500 418.464 C 664.750 418.100, 671.678 417.630, 671.896 417.421 C 672.754 416.598, 655.380 393.826, 643.728 380.501 L 640.231 376.502 631.865 376.294 C 627.264 376.180, 620.125 376.721, 616 377.497 M 792.500 411.011 C 870.379 419.250, 964.480 438.181, 1043.500 461.505 C 1057.250 465.563, 1070.483 469.590, 1072.906 470.453 C 1081.626 473.557, 1077.700 471.207, 1061.745 463.771 C 1018.855 443.780, 978.661 430.775, 931.500 421.627 C 890.931 413.758, 857.123 410.642, 801 409.599 L 774.500 409.107 792.500 411.011 M 853 452.639 C 853 454.577, 879.533 485.430, 888.685 494.134 C 902.629 507.397, 918.815 510.787, 972.630 511.716 C 1016.633 512.475, 1032.431 510.759, 1042.710 504.102 C 1048.880 500.105, 1063 488.291, 1063 487.124 C 1063 486.168, 1040.668 480.809, 1016.500 475.964 C 998.400 472.336, 991.047 470.955, 965.622 466.409 C 950.985 463.791, 909.656 458.080, 883.293 455.031 C 855.578 451.825, 853 451.622, 853 452.639 M 477.682 454.045 C 470.987 455.169, 463.570 459.008, 463.208 461.537 C 461.822 471.219, 498.026 475.499, 516.178 467.800 C 523.930 464.512, 523.560 461.778, 514.858 458.034 C 504.384 453.529, 489.966 451.981, 477.682 454.045 M 878.500 462.974 C 879.600 463.516, 882.975 464.878, 886 466.003 C 893.407 468.755, 894.512 469.821, 904.421 483.774 C 912.537 495.202, 913.298 495.968, 918.463 497.900 C 924.159 500.031, 945.242 503.370, 960.200 504.509 C 971.539 505.372, 976.313 503.972, 995 494.302 C 1012.761 485.111, 1008.453 485.339, 989.577 494.589 C 973.836 502.303, 969.117 503.122, 952.305 501.056 C 929.155 498.210, 926.168 496.665, 915.877 482.209 C 909.093 472.680, 905.362 468.296, 902.899 466.958 C 902.018 466.480, 896.618 465.366, 890.899 464.482 C 885.179 463.599, 879.600 462.676, 878.500 462.433 L 876.500 461.989 878.500 462.974 M 756.500 468.626 C 755.400 468.842, 752.025 469.504, 749 470.095 C 741.073 471.645, 728.534 477.998, 720.882 484.341 C 712.797 491.042, 702.636 504.359, 697.132 515.465 C 688.350 533.188, 681.785 559.666, 680.361 583.100 L 679.682 594.288 665.091 593.616 C 632.161 592.098, 607.108 591.002, 582.500 590.002 C 568.200 589.421, 546.375 588.517, 534 587.994 C 509.706 586.966, 439.961 584.425, 410 583.475 C 399.825 583.152, 371.475 582.017, 347 580.952 C 322.525 579.887, 284.950 578.335, 263.500 577.503 C 242.050 576.672, 216.688 575.543, 207.139 574.996 C 197.591 574.448, 183.641 573.964, 176.139 573.921 C 168.638 573.878, 162.950 573.684, 163.500 573.490 C 164.050 573.296, 174.400 572.631, 186.500 572.012 C 198.600 571.393, 222.450 570.047, 239.500 569.021 C 256.550 567.994, 292.325 565.882, 319 564.327 C 345.675 562.772, 366.375 561.393, 365 561.263 C 363.625 561.133, 340.450 560.106, 313.500 558.982 C 286.550 557.857, 254.825 556.507, 243 555.982 C 209.569 554.496, 198.826 554.778, 166.033 558 C 107.058 563.795, 47.381 569.161, 35.524 569.735 C 23.796 570.303, 21.811 571.781, 32.575 571.930 C 35.367 571.968, 55.617 573.778, 77.575 575.951 C 138.548 581.985, 189.318 585.771, 214.193 586.137 C 223.229 586.270, 206.438 587.235, 140.669 590.362 C 123.713 591.168, 109.629 592.038, 109.373 592.294 C 109.117 592.550, 122.540 593.062, 139.203 593.431 C 155.867 593.800, 181.650 594.536, 196.500 595.065 C 224.486 596.064, 660.850 596.247, 687.195 595.272 L 701.890 594.728 702.525 589.114 C 707.215 547.648, 721.470 521.141, 745 510.131 C 751.572 507.056, 753.699 506.569, 762.184 506.197 C 773.755 505.690, 780.133 507.348, 789.228 513.226 C 807.719 525.177, 821.620 549.633, 826.759 579.250 L 828.450 589 837.225 589 L 846 589 846 584.534 C 846 578.353, 843.242 559.127, 840.974 549.500 C 830.542 505.215, 806.419 475.620, 775.792 469.532 C 768.531 468.089, 761.019 467.736, 756.500 468.626 M 975.500 478.562 C 977.051 479.190, 1017.235 487, 1018.912 487 C 1019.844 487, 1020.045 486.652, 1019.450 486.069 C 1018.350 484.991, 997.130 480.579, 985.678 479.047 C 977.863 478.001, 973.613 477.799, 975.500 478.562 M 1129.500 480.022 C 1104.761 480.969, 1102.618 481.389, 1097.238 486.348 C 1092.508 490.708, 1078.692 510.742, 1075.582 517.750 C 1073.734 521.914, 1073.734 522.086, 1075.582 526.250 C 1078.322 532.424, 1092.573 553.522, 1097.381 558.521 C 1102.458 563.800, 1106.270 564.923, 1123 566.069 C 1140.656 567.279, 1216.175 567.204, 1231.605 565.962 C 1252.968 564.242, 1256.329 562.611, 1262.425 551.011 C 1266.598 543.069, 1272.558 526.220, 1273.493 519.724 C 1274.688 511.409, 1267.861 492.105, 1262.478 488.577 C 1259 486.299, 1249.686 484.263, 1235 482.573 C 1204.838 479.101, 1173.441 478.342, 1129.500 480.022 M 166 485.922 C 159.675 486.327, 139.425 487.483, 121 488.491 C 102.575 489.500, 87.144 490.630, 86.708 491.004 C 86.272 491.378, 92.572 492.014, 100.708 492.418 C 108.844 492.822, 123.825 493.705, 134 494.381 L 152.500 495.609 139.500 496.339 C 122.720 497.281, 78.791 499.882, 64 500.809 C 53.127 501.490, 54.190 501.598, 83.500 502.799 C 100.550 503.498, 123.950 504.528, 135.500 505.088 C 147.050 505.648, 167.975 506.538, 182 507.065 C 196.025 507.592, 211.775 508.426, 217 508.918 C 222.225 509.410, 227.063 509.854, 227.750 509.906 C 230.387 510.104, 228.990 513, 226.250 513.015 C 220.834 513.046, 193.111 515.067, 171.500 517.006 C 133.969 520.374, 112.755 521.815, 36 526.210 C 24.175 526.887, 15.175 527.553, 16 527.690 C 17.441 527.928, 49.451 530.848, 74.500 533.026 C 81.100 533.600, 91.173 534.529, 96.885 535.091 C 102.597 535.653, 125.006 537.385, 146.683 538.938 C 184.327 541.636, 194.891 542.913, 180.917 543.074 C 177.388 543.115, 172.475 543.509, 170 543.949 L 165.500 544.750 169.500 544.871 C 171.700 544.937, 179.575 544.550, 187 544.009 C 194.425 543.469, 209.050 542.564, 219.500 541.999 C 229.950 541.433, 250.425 540.265, 265 539.402 C 279.575 538.539, 301.625 537.290, 314 536.624 L 336.500 535.415 325 534.666 C 318.675 534.254, 304.275 533.274, 293 532.487 C 281.725 531.701, 260.800 530.360, 246.500 529.507 C 232.200 528.654, 210.067 527.291, 197.316 526.478 C 184.564 525.665, 170.839 524.948, 166.816 524.885 C 160.250 524.782, 159.910 524.685, 163.500 523.943 C 165.700 523.488, 170.650 523.089, 174.500 523.058 C 178.350 523.026, 198.825 521.646, 220 519.991 C 265.531 516.432, 297.993 514.104, 307 513.753 C 310.988 513.598, 305.965 512.991, 294 512.184 C 234.202 508.147, 186.204 505.013, 184.083 505.007 C 182.754 505.003, 181.931 504.735, 182.255 504.412 C 183.221 503.446, 267.648 497.208, 318.729 494.329 C 335.355 493.392, 348.855 492.525, 348.729 492.403 C 348.220 491.908, 222.338 486.445, 191.500 485.579 C 183.800 485.363, 172.325 485.517, 166 485.922 M 1282.410 487.546 L 1278.320 490.014 1281.660 499.601 C 1283.497 504.873, 1285 510.059, 1285 511.125 C 1285 513.498, 1287.534 514.632, 1289.392 513.090 C 1290.463 512.201, 1291.768 512.879, 1295.431 516.228 L 1300.104 520.500 1299.066 534.500 C 1297.234 559.201, 1298.190 556.649, 1287.880 564.371 C 1282.941 568.071, 1278.663 571.716, 1278.373 572.471 C 1278.083 573.226, 1280.310 577.367, 1283.321 581.672 C 1286.332 585.977, 1291.045 593.209, 1293.794 597.743 C 1296.862 602.805, 1298.999 605.444, 1299.331 604.581 C 1299.627 603.808, 1300.426 599.545, 1301.105 595.108 C 1302.053 588.916, 1302.068 586.444, 1301.170 584.473 C 1299.234 580.225, 1299.809 576.788, 1303.858 568.417 C 1307.690 560.491, 1307.723 560.323, 1308.900 541.970 C 1309.551 531.812, 1310.253 522.095, 1310.459 520.377 C 1310.921 516.522, 1308.405 512.173, 1303.585 508.497 C 1301.198 506.676, 1300 504.947, 1300 503.322 C 1300 500.958, 1299.848 501.009, 1295.186 504.940 C 1292.538 507.173, 1290.129 509, 1289.833 509 C 1289.333 509, 1287.910 495.631, 1287.625 488.251 C 1287.556 486.463, 1287.275 485.019, 1287 485.040 C 1286.725 485.061, 1284.659 486.189, 1282.410 487.546 M 963.500 555.551 C 962.400 555.809, 959.025 556.512, 956 557.115 C 946.466 559.012, 937.874 564.308, 928.796 573.883 C 918.267 584.986, 903.639 603.380, 904.982 603.827 C 905.553 604.018, 911.528 603.262, 918.260 602.148 C 935.464 599.300, 937.590 599.150, 984.345 597.480 C 1024.439 596.048, 1026.511 595.879, 1033.845 593.439 C 1040.870 591.101, 1066.128 577.750, 1070.258 574.190 C 1071.867 572.804, 1071.882 572.527, 1070.429 570.922 C 1067.400 567.575, 1052.025 562.753, 1036 560.124 C 1018.138 557.194, 969.568 554.131, 963.500 555.551 M 1097.834 584.067 C 1094.291 584.905, 1074.124 596.027, 1061.600 604.050 L 1055.500 607.958 1169.785 607.979 C 1278.322 607.999, 1284.023 607.912, 1283.133 606.250 C 1282.617 605.288, 1278.546 600.600, 1274.085 595.833 C 1260.863 581.703, 1270.377 582.983, 1179.434 583.100 C 1136.570 583.156, 1099.850 583.591, 1097.834 584.067" stroke="none" fill="#0c1b2d" fill-rule="evenodd"/></svg>